<?xml version="1.0" encoding="utf-8"?>
<!-- Generator: Adobe Illustrator 26.3.0, SVG Export Plug-In . SVG Version: 6.00 Build 0)  -->
<svg version="1.1" xmlns="http://www.w3.org/2000/svg" xmlns:xlink="http://www.w3.org/1999/xlink" x="0px" y="0px"
	 viewBox="0 0 42.51 12.45" style="enable-background:new 0 0 42.51 12.45;" xml:space="preserve">
<style type="text/css">
	.st0{fill:#FFFFFF;}
	.st1{fill:#1160AE;}
	.st2{fill:#ED1B32;}
</style>
<g id="Layer_2">
</g>
<g id="Layer_1">
	<path class="st0" d="M18.66,4.39c-1.02,1.01-2.02,2.01-3.03,3.02c1,1,2,2.01,2.94,2.95c1.02-1.01,2.03-2.02,3.03-3.02
		C20.63,6.38,19.64,5.37,18.66,4.39z"/>
	<path class="st1" d="M5.42,10.71c0.06-0.49,0.12-0.94,0.18-1.39c0.14-1.06,0.27-2.13,0.44-3.19c0.08-0.51,0.21-1.01,0.32-1.52
		c0.02-0.07,0.07-0.14,0.12-0.19C6.71,4.13,7.04,4,7.3,4.1c0.27,0.1,0.49,0.43,0.46,0.8C7.72,5.38,7.65,5.86,7.58,6.34
		c-0.05,0.38-0.1,0.77-0.16,1.2c0.33,0,0.64,0.01,0.93-0.01c0.06,0,0.15-0.14,0.16-0.22c0.11-0.72,0.19-1.44,0.33-2.15
		c0.06-0.29,0.21-0.59,0.39-0.83C9.42,4.09,9.71,3.98,10,4.11c0.27,0.12,0.43,0.37,0.41,0.68c-0.03,0.46-0.09,0.93-0.15,1.39
		c-0.14,1.04-0.29,2.08-0.44,3.12c-0.05,0.38-0.1,0.75-0.37,1.05c-0.27,0.3-0.55,0.41-0.83,0.31c-0.25-0.1-0.46-0.43-0.44-0.78
		c0.03-0.41,0.1-0.82,0.17-1.22C8.44,8.18,8.4,8.12,7.9,8.11c-0.11,0-0.22,0-0.33,0.01c-0.19,0.01-0.28,0.09-0.3,0.3
		c-0.02,0.37-0.07,0.73-0.14,1.1c-0.13,0.73-0.4,1.28-1.39,1.19C5.67,10.71,5.58,10.71,5.42,10.71z"/>
	<path class="st2" d="M18.66,4.39c0.98,0.98,1.97,1.98,2.94,2.96c-1,0.99-2.01,2-3.03,3.02c-0.94-0.95-1.95-1.95-2.94-2.95
		C16.64,6.41,17.65,5.4,18.66,4.39z"/>
	<path class="st1" d="M2.22,8.5C2.14,8.94,2.08,9.39,2,9.84c-0.1,0.62-0.41,0.88-1.04,0.88c-0.35,0-0.39-0.06-0.34-0.41
		C0.69,9.9,0.75,9.5,0.81,9.09c0.15-1.05,0.27-2.1,0.46-3.15c0.22-1.21,1.63-2.1,2.82-1.83c0.84,0.19,1.27,0.86,1.17,1.72
		c-0.1,0.84-0.44,1.51-1.2,1.93c-0.19,0.11-0.19,0.23-0.09,0.4C4.21,8.53,4.45,8.91,4.66,9.3c0.23,0.44,0.05,1.04-0.37,1.31
		c-0.28,0.18-0.58,0.13-0.76-0.16C3.18,9.86,2.84,9.27,2.49,8.68C2.44,8.59,2.37,8.53,2.3,8.46C2.27,8.47,2.25,8.48,2.22,8.5z
		 M3.24,4.89c-0.25,0-0.52,0.22-0.58,0.53C2.56,5.94,2.5,6.46,2.41,6.98c-0.06,0.34,0.1,0.64,0.37,0.69
		c0.29,0.06,0.63-0.15,0.68-0.47c0.1-0.57,0.18-1.15,0.24-1.73C3.75,5.15,3.52,4.9,3.24,4.89z"/>
	<path class="st1" d="M10.56,10.71c0.11-0.8,0.2-1.54,0.31-2.28c0.12-0.85,0.23-1.7,0.38-2.54c0.24-1.3,2.11-2.37,3.4-1.54
		c0.59,0.38,0.78,1.09,0.46,1.85c-0.13,0.3-0.36,0.56-0.53,0.85c-0.05,0.09-0.09,0.25-0.05,0.33c0.41,0.82,0.3,1.75-0.32,2.44
		c-0.51,0.57-1.14,0.89-1.92,0.89C11.74,10.71,11.17,10.71,10.56,10.71z M12.09,9.13c-0.04,0.66,0.37,0.83,0.73,0.69
		c0.19-0.08,0.4-0.29,0.44-0.47c0.11-0.48,0.18-0.98,0.19-1.47c0.01-0.37-0.39-0.61-0.72-0.43c-0.2,0.12-0.4,0.35-0.47,0.57
		C12.15,8.37,12.15,8.76,12.09,9.13z M12.5,6.26c-0.01,0.71,0.34,0.98,0.78,0.76c0.26-0.13,0.4-0.36,0.45-0.64
		c0.04-0.21,0.07-0.43,0.1-0.64c0.08-0.42-0.09-0.75-0.42-0.83c-0.28-0.07-0.66,0.19-0.75,0.53C12.57,5.75,12.53,6.08,12.5,6.26z"/>
	<path class="st1" d="M35.1,9.21c0.1-0.38,0.22-0.82,0.32-1.26c0.04-0.17,0.23-0.43-0.22-0.41C35,7.56,34.99,7.32,35.15,7.2
		c0.19-0.15,0.37-0.31,0.6-0.41c0.41-0.18,0.55-0.12,0.48,0.34c-0.07,0.52-0.23,1.03-0.36,1.54c-0.06,0.22-0.07,0.36,0.22,0.26
		c0.08-0.03,0.14-0.01,0.19,0.06c0.06,0.09,0.01,0.16-0.05,0.23c-0.15,0.16-0.31,0.3-0.49,0.42c-0.17,0.12-0.35,0.17-0.53,0.09
		C35.04,9.64,35.16,9.44,35.1,9.21z"/>
	<path class="st1" d="M35.73,5.84c0.07-0.22,0.19-0.42,0.46-0.41c0.23,0.01,0.31,0.22,0.3,0.4c-0.01,0.23-0.14,0.39-0.42,0.38
		C35.82,6.2,35.76,6.05,35.73,5.84z"/>
	<path class="st1" d="M37.76,8.38c0.43-0.15,0.86-0.31,1.19-0.66c0.22-0.24,0.28-0.48,0.11-0.73c-0.17-0.24-0.38-0.39-0.73-0.33
		c-0.78,0.14-1.68,1.09-1.56,2.07c0,0.12-0.02,0.27,0,0.41c0.04,0.29,0.18,0.54,0.48,0.6c0.65,0.13,1.16-0.16,1.62-0.59
		c0.08-0.08,0.1-0.19,0.04-0.28c-0.08-0.11-0.17-0.06-0.26,0c-0.17,0.11-0.33,0.24-0.52,0.31c-0.24,0.09-0.49,0.11-0.61-0.2
		C37.42,8.72,37.42,8.5,37.76,8.38z M37.64,7.76c0.09-0.2,0.21-0.37,0.39-0.51c0.12-0.09,0.24-0.13,0.34-0.01
		c0.1,0.12,0.04,0.24-0.06,0.34c-0.18,0.17-0.35,0.34-0.62,0.35C37.56,7.91,37.63,7.83,37.64,7.76z"/>
	<path class="st1" d="M27.11,6.91c-0.1-0.23-0.26-0.32-0.52-0.19c-0.19,0.1-0.33,0.29-0.58,0.26c0,0,0,0,0,0l0,0
		c-0.07-0.16-0.14-0.37-0.35-0.29c-0.31,0.11-0.61,0.27-0.78,0.57c-0.11,0.19-0.06,0.33,0.18,0.27c0.21-0.05,0.19,0.02,0.19,0.18
		c0,0.52-0.17,1.01-0.28,1.51c-0.04,0.18-0.21,0.42,0.08,0.5c0.26,0.07,0.51-0.03,0.56-0.38c0.04-0.25,0.08-0.51,0.17-0.75
		c0.19-0.55,0.34-1.14,1.09-1.2C27.1,7.38,27.21,7.16,27.11,6.91z"/>
	<path class="st1" d="M28.07,8.41C28.52,8.23,29,8.09,29.34,7.7c0.2-0.23,0.22-0.49,0.08-0.72C29.26,6.72,29,6.56,28.68,6.65
		c-1.01,0.31-1.65,1.2-1.54,2.03c0,0.14-0.01,0.29,0,0.43c0.04,0.31,0.18,0.56,0.5,0.63c0.63,0.13,1.11-0.19,1.55-0.57
		c0.08-0.07,0.16-0.19,0.04-0.3c-0.1-0.1-0.18-0.02-0.26,0.04c-0.19,0.13-0.38,0.26-0.61,0.31c-0.29,0.06-0.45-0.06-0.55-0.34
		C27.7,8.58,27.84,8.51,28.07,8.41z M28.61,7.17c0.14,0.03,0.18,0.14,0.17,0.26c-0.01,0.16-0.47,0.51-0.65,0.49
		c-0.12-0.01-0.13-0.09-0.11-0.19C28.06,7.52,28.45,7.13,28.61,7.17z"/>
	<path class="st1" d="M27.71,1.88c-0.14-0.19-0.51-0.22-0.46-0.52c0.05-0.26,0.34-0.38,0.5-0.58c0.06-0.07,0.18-0.12,0.09-0.25
		c-0.09-0.13-0.19-0.1-0.3-0.04c-0.24,0.14-0.49,0.26-0.7,0.43c-0.18,0.15-0.33,0.18-0.55,0.09c-1.17-0.45-2.38-0.41-3.56-0.17
		c-1.53,0.31-2.9,0.99-4.09,2.01c-0.15,0.13-0.4,0.27-0.11,0.5c0.21,0.17,0.33,0.58,0.74,0.18c0.83-0.81,1.78-1.44,2.87-1.88
		c0.5-0.2,1.03-0.24,1.53-0.42c0.55-0.13,1.09-0.13,1.64,0c0.17,0.04,0.33,0.08,0.5,0.13c0.23,0.07,0.31,0.2,0.13,0.41
		c-0.79,0.93-1.33,2.01-1.84,3.1c-0.12,0.25-0.26,0.32-0.51,0.22c-0.21-0.08-0.43-0.16-0.65-0.24c-0.13-0.05-0.26-0.11-0.35,0.03
		c-0.11,0.17,0.06,0.21,0.16,0.28c0.05,0.03,0.1,0.07,0.13,0.11c0.19,0.21,0.62,0.14,0.66,0.47c0.04,0.29-0.22,0.52-0.33,0.78
		c-0.02,0.04-0.04,0.08-0.06,0.12c-0.69,1.26-1.29,2.57-2.38,3.57c-0.75,0.69-1.61,1.03-2.64,0.82c-0.2-0.04-0.4-0.07-0.59-0.09
		c-0.12-0.02-0.24,0.02-0.29,0.14c-0.07,0.15,0.07,0.19,0.15,0.27c0.15,0.14,0.36,0.09,0.52,0.2c0,0,0,0,0.01,0l0,0
		c0,0,0.95,0.27,1.92-0.09c0.01,0,0.01-0.01,0.02-0.01c0.01,0,0.03,0,0.04,0c1.15-0.43,2.02-1.2,2.71-2.18
		c0.6-0.86,1.11-1.78,1.55-2.73c0.17-0.37,0.38-0.58,0.84-0.55c0.6,0.04,1.2,0.08,1.79-0.15c0.54-0.21,0.99-0.51,1.28-1.03
		C28.71,3.75,28.41,2.79,27.71,1.88z M26.55,5.1c-0.31,0.17-0.6,0.43-0.93,0.32c-0.73,0-0.76-0.07-0.46-0.67
		c0.44-0.88,0.88-1.77,1.43-2.59c0.22-0.33,0.35-0.28,0.57-0.01C27.97,3.17,27.43,4.62,26.55,5.1z"/>
	<path class="st1" d="M42.04,6.99c-0.15-0.18-0.15-0.18-0.15-0.18c-0.37-0.27-0.66-0.12-0.92,0.18c-0.15,0.18-0.28,0.22-0.3-0.09
		c-0.01-0.2-0.12-0.3-0.32-0.22c-0.29,0.13-0.56,0.31-0.75,0.57c-0.08,0.12-0.13,0.35,0.09,0.32c0.5-0.07,0.27,0.26,0.25,0.42
		c-0.08,0.49-0.19,0.98-0.32,1.47c-0.11,0.4,0.14,0.34,0.34,0.29c0.19-0.04,0.36-0.19,0.35-0.39c-0.01-0.33,0.1-0.64,0.21-0.91
		c0.2-0.46,0.3-1.11,1.07-1.04c0.09,0.01,0.2-0.1,0.29-0.16C41.89,7.24,42.18,7.17,42.04,6.99z"/>
	<path class="st1" d="M34.47,9.22c-0.02,0.03-0.05,0.07-0.08,0.09c-0.3,0.18-0.55,0.61-0.94,0.4c-0.37-0.19-0.08-0.58-0.04-0.86
		c0.05-0.41,0.19-0.81,0.29-1.21c0.04-0.12,0.09-0.28-0.04-0.36c-0.15-0.09-0.21,0.07-0.29,0.17c-0.21,0.29-0.52,0.5-0.72,0.81
		c-0.17,0.26-0.28,0.53-0.31,0.84c-0.01,0.15-0.05,0.31-0.12,0.45c-0.1,0.22-0.32,0.25-0.52,0.19c-0.23-0.07-0.1-0.25-0.07-0.39
		c0.13-0.56,0.25-1.12,0.39-1.68c0.03-0.13,0.08-0.26-0.09-0.32c-0.14-0.05-0.22,0.03-0.32,0.14c-0.53,0.53-0.93,1.12-1,1.9
		c-0.01,0.21-0.13,0.34-0.35,0.37c-0.25,0.03-0.4-0.05-0.33-0.34c0.11-0.45,0.25-0.91,0.35-1.37c0.05-0.2,0.31-0.52-0.23-0.5
		c-0.14,0-0.17-0.18-0.07-0.31c0.19-0.26,0.46-0.43,0.75-0.57c0.12-0.06,0.22-0.01,0.3,0.09c0.08,0.09,0.14,0.18,0.03,0.3
		c-0.03,0.03-0.07,0.06-0.08,0.09c-0.01,0.11-0.06,0.24-0.01,0.33c0.29-0.22,0.73-0.55,0.88-0.63c0.02-0.01,0.03,0,0.04-0.01
		c0.06-0.03,0.11-0.07,0.17-0.1c0.45-0.19,0.61-0.08,0.64,0.4c0,0.05,0,0.09,0.01,0.15c0.24-0.16,0.72-0.48,1.05-0.61
		c0.05-0.02,0.1-0.04,0.14-0.05c0.04-0.01,0.08-0.02,0.11-0.02c0.13,0,0.19,0.08,0.19,0.08c0.09,0.05,0.14,0.17,0.15,0.36
		c0.03,0.51-0.11,1-0.22,1.49c-0.03,0.18-0.24,0.49,0.24,0.42C34.49,8.94,34.55,9.09,34.47,9.22z"/>
	<g>
	</g>
	<g>
	</g>
	<g>
	</g>
	<g>
	</g>
	<g>
	</g>
	<g>
	</g>
</g>
</svg>
